Coordinates
version=1
nRows=11
nColumns=63
inDegrees=yes

Units are S.I. units (second, meters, Newtons, ...)
If the header above contains a line with 'inDegrees', this indicates whether rotational values are in degrees (yes) or radians (no).

endheader
time	pelvis_tilt	pelvis_list	pelvis_rotation	pelvis_tx	pelvis_ty	pelvis_tz	hip_flexion_r	hip_adduction_r	hip_rotation_r	knee_angle_r	knee_angle_r_beta	ankle_angle_r	subtalar_angle_r	mtp_angle_r	hip_flexion_l	hip_adduction_l	hip_rotation_l	knee_angle_l	knee_angle_l_beta	ankle_angle_l	subtalar_angle_l	mtp_angle_l	L5_S1_Flex_Ext	L5_S1_Lat_Bending	L5_S1_axial_rotation	L4_L5_Flex_Ext	L4_L5_Lat_Bending	L4_L5_axial_rotation	L3_L4_Flex_Ext	L3_L4_Lat_Bending	L3_L4_axial_rotation	L2_L3_Flex_Ext	L2_L3_Lat_Bending	L2_L3_axial_rotation	L1_L2_Flex_Ext	L1_L2_Lat_Bending	L1_L2_axial_rotation	L1_T12_Flex_Ext	L1_T12_Lat_Bending	L1_T12_axial_rotation	Abs_r3	Abs_r2	Abs_r1	Abs_t1	Abs_t2	neck_flexion	neck_bending	neck_rotation	arm_flex_r	arm_add_r	arm_rot_r	elbow_flex_r	pro_sup_r	wrist_flex_r	wrist_dev_r	arm_flex_l	arm_add_l	arm_rot_l	elbow_flex_l	pro_sup_l	wrist_flex_l	wrist_dev_l
2.800000	-4.016767	-19.677059	88.076227	0.232661	0.897783	0.478401	26.578058	-3.396260	-0.522550	25.732261	0.449113	32.422095	2.138955	0.000000	21.245510	1.702262	-19.178294	18.235787	0.318275	26.335491	10.648397	0.000000	-0.007292	-0.534727	0.696174	-0.013541	-0.711187	0.739684	-0.011979	-1.300136	0.739684	-0.008333	-1.300136	0.609152	-0.006771	-1.090416	0.565641	-0.004166	-0.828293	0.522130	-0.052083	-6.048942	3.871908	0.000000	0.000000	-13.001279	4.345788	-5.127539	24.005037	-29.366865	75.984137	64.857801	75.503248	0.633525	-0.172425	29.535504	-30.499353	80.372136	63.186332	72.112278	7.243304	-2.355195
2.816667	-3.589190	-18.907045	87.905380	0.231701	0.900022	0.475310	24.901157	-3.092997	-0.908857	24.470496	0.427091	31.836303	2.910517	0.000000	19.667143	1.629673	-19.082748	17.050087	0.297580	25.899437	10.300070	0.000000	-0.013092	-0.475519	0.679205	-0.024314	-0.632441	0.721656	-0.021509	-1.156178	0.721656	-0.014963	-1.156178	0.594305	-0.012158	-0.969679	0.551854	-0.007481	-0.736580	0.509404	-0.093518	-5.379171	3.777537	0.000000	0.000000	-12.248761	3.809997	-4.749499	25.372118	-33.856638	70.297514	73.653952	78.709012	0.855161	2.015788	30.113066	-34.361043	79.847834	70.757300	74.359534	7.680138	-1.748244
2.833333	-3.189765	-18.142059	87.622418	0.230809	0.902280	0.472512	23.243565	-2.793527	-1.272732	23.163594	0.404281	31.222222	3.766549	0.000000	18.106685	1.576498	-19.005498	15.843291	0.276518	25.402787	9.819749	0.000000	-0.020343	-0.416617	0.678094	-0.037779	-0.554101	0.720475	-0.033422	-1.012963	0.720475	-0.023250	-1.012963	0.593332	-0.018891	-0.849565	0.550951	-0.011624	-0.645340	0.508571	-0.145308	-4.712855	3.771356	0.000000	0.000000	-11.430789	3.223976	-4.300454	27.235880	-38.268918	66.593973	82.052045	79.574783	1.051270	3.987773	30.922592	-38.148813	80.614932	78.283490	75.445453	8.430118	-1.094875
2.850000	-2.828539	-17.398222	87.242214	0.230065	0.904587	0.470034	21.626728	-2.504871	-1.604198	21.811235	0.380678	30.572265	4.689235	0.000000	16.603619	1.539719	-18.954894	14.661824	0.255897	24.840643	9.234784	0.000000	-0.028315	-0.361484	0.694443	-0.052583	-0.480774	0.737845	-0.046518	-0.878913	0.737845	-0.032361	-0.878913	0.607637	-0.026293	-0.737139	0.564235	-0.016179	-0.559939	0.520832	-0.202248	-4.089185	3.862282	0.000000	0.000000	-10.580921	2.619117	-3.863972	29.512701	-42.471976	64.985392	89.798455	77.867187	1.267123	5.692190	32.023826	-41.771965	82.730963	85.631720	75.127832	9.537255	-0.487256
2.866667	-2.604805	-16.705025	86.720419	0.229690	0.906869	0.467891	20.129904	-2.278226	-1.828004	20.476777	0.357387	29.902472	5.626625	0.000000	15.190937	1.575387	-19.000381	13.501942	0.235653	24.198513	8.598400	0.000000	-0.033771	-0.323773	0.721966	-0.062716	-0.430618	0.767089	-0.055482	-0.787222	0.767089	-0.038597	-0.787222	0.631720	-0.031360	-0.660238	0.586598	-0.019297	-0.501525	0.541475	-0.241221	-3.662588	4.015359	0.000000	0.000000	-9.668465	2.065044	-3.406686	32.216273	-46.244618	65.845897	96.604761	73.418767	1.543857	7.108874	33.198612	-45.713018	82.290178	93.406017	76.649041	10.492260	0.763824
2.883333	-2.490714	-16.064710	86.110927	0.229621	0.909172	0.466000	18.737845	-2.107686	-1.969924	19.153311	0.334288	29.221760	6.562876	0.000000	13.867898	1.671837	-19.112458	12.370316	0.215903	23.469959	7.938954	0.000000	-0.037119	-0.300342	0.743645	-0.068933	-0.399455	0.790123	-0.060983	-0.730252	0.790123	-0.042423	-0.730252	0.650690	-0.034469	-0.612458	0.604212	-0.021210	-0.465230	0.557734	-0.265136	-3.397531	4.135931	0.000000	0.000000	-8.699349	1.584545	-2.864029	35.582460	-49.358328	69.614225	102.143965	66.251569	2.065192	8.100761	34.212418	-49.755075	81.439113	101.089332	77.673739	11.553997	2.137971
2.900000	-2.544773	-15.482720	85.385845	0.230098	0.911482	0.464309	17.473229	-2.011282	-1.947403	17.862876	0.311766	28.536636	7.416132	0.000000	12.630181	1.846362	-19.410941	11.260778	0.196538	22.654427	7.413831	0.000000	-0.036275	-0.302405	0.752862	-0.067366	-0.402199	0.799915	-0.059596	-0.735268	0.799915	-0.041458	-0.735268	0.658754	-0.033685	-0.616664	0.611700	-0.020727	-0.468425	0.564646	-0.259106	-3.420866	4.187190	0.000000	0.000000	-7.658074	1.295353	-2.262928	39.475875	-51.609612	76.254731	106.134530	56.501842	3.113205	8.635347	35.725403	-53.946278	80.217879	108.622538	78.662657	12.687590	3.871196
2.916667	-2.462484	-15.015392	84.762539	0.230233	0.913452	0.463093	16.375120	-1.861676	-2.089989	16.639277	0.290410	27.878056	8.344074	0.000000	11.648925	1.913303	-19.544060	10.389397	0.181329	21.926496	6.790285	0.000000	-0.032391	-0.287685	0.752469	-0.060153	-0.382622	0.799499	-0.053215	-0.699478	0.799499	-0.037020	-0.699478	0.658411	-0.030078	-0.586648	0.611381	-0.018508	-0.445625	0.564352	-0.231365	-3.254355	4.185009	0.000000	0.000000	-6.401402	1.077736	-1.721697	43.832618	-54.472202	78.165980	111.529863	50.261671	3.446798	10.411928	37.683918	-57.921723	78.740199	115.662266	79.099021	13.948956	5.894545
2.933333	-2.384595	-14.634607	84.172568	0.230418	0.915229	0.462146	15.420910	-1.722841	-2.250987	15.483925	0.270245	27.253606	9.265372	0.000000	10.834539	1.955702	-19.700392	9.654949	0.168511	21.220399	6.254871	0.000000	-0.026048	-0.276653	0.738899	-0.048373	-0.367948	0.785080	-0.042794	-0.672654	0.785080	-0.029770	-0.672654	0.646536	-0.024188	-0.564150	0.600355	-0.014884	-0.428535	0.554174	-0.186056	-3.129552	4.109533	0.000000	0.000000	-5.003763	1.038658	-1.231772	48.637486	-57.115210	79.909674	116.438623	44.443751	3.920481	12.361477	40.619769	-61.726709	77.405885	122.112157	78.720049	15.320245	8.278055
2.950000	-2.317106	-14.329835	83.649941	0.230623	0.916819	0.461408	14.592064	-1.603189	-2.423775	14.401133	0.251347	26.667006	10.133794	0.000000	10.167868	1.984687	-19.865404	9.046360	0.157889	20.542638	5.836667	0.000000	-0.018258	-0.270707	0.714295	-0.033908	-0.360041	0.758938	-0.029997	-0.658198	0.758938	-0.020868	-0.658198	0.625008	-0.016955	-0.552027	0.580364	-0.010433	-0.419326	0.535721	-0.130418	-3.062297	3.972693	0.000000	0.000000	-3.519130	1.186321	-0.864135	53.439438	-59.601769	80.795537	120.862032	39.562457	4.656288	14.513652	44.612845	-65.236348	76.218462	127.797795	77.309263	16.926831	11.170953
2.966667	-2.248412	-14.084337	83.228006	0.230775	0.918218	0.460829	13.868854	-1.502029	-2.642689	13.410403	0.234056	26.136242	10.957174	0.000000	9.628876	1.995604	-20.027110	8.564870	0.149485	19.922126	5.570437	0.000000	-0.010314	-0.267250	0.682297	-0.019154	-0.355442	0.724940	-0.016945	-0.649791	0.724940	-0.011788	-0.649791	0.597010	-0.009578	-0.544976	0.554366	-0.005893	-0.413970	0.511723	-0.073672	-3.023182	3.794731	0.000000	0.000000	-2.020031	1.458365	-0.633016	58.376309	-61.994731	80.972002	124.788330	35.369970	5.650482	16.918547	49.550952	-68.368539	75.061251	132.604551	75.235898	19.016803	14.304777
